<?xml version="1.0" encoding="UTF-8" standalone="no"?>
<!-- Created with Inkscape (http://www.inkscape.org/) -->

<svg
   width="297mm"
   height="210mm"
   viewBox="0 0 297 210"
   version="1.1"
   id="svg5"
   inkscape:version="1.1.1 (3bf5ae0d25, 2021-09-20)"
   sodipodi:docname="meditation-reminder.svg"
   xmlns:inkscape="http://www.inkscape.org/namespaces/inkscape"
   xmlns:sodipodi="http://sodipodi.sourceforge.net/DTD/sodipodi-0.dtd"
   xmlns="http://www.w3.org/2000/svg"
   xmlns:svg="http://www.w3.org/2000/svg">
  <sodipodi:namedview
     id="namedview7"
     pagecolor="#ffffff"
     bordercolor="#666666"
     borderopacity="1.0"
     inkscape:pageshadow="2"
     inkscape:pageopacity="0.0"
     inkscape:pagecheckerboard="0"
     inkscape:document-units="mm"
     showgrid="true"
     showguides="true"
     inkscape:zoom="0.55589226"
     inkscape:cx="-36.87765"
     inkscape:cy="561.25984"
     inkscape:window-width="2516"
     inkscape:window-height="1403"
     inkscape:window-x="44"
     inkscape:window-y="0"
     inkscape:window-maximized="1"
     inkscape:current-layer="layer1">
    <inkscape:grid
       type="xygrid"
       id="grid36" />
  </sodipodi:namedview>
  <defs
     id="defs2">
    <style
       id="style2">.cls-1{fill:#fff;}</style>
  </defs>
  <g
     inkscape:label="Ebene 1"
     inkscape:groupmode="layer"
     id="layer1">
    <g
       id="g34"
       transform="matrix(0.43874876,0,0,0.38645213,79.43703,88.229985)"
       style="fill:none;stroke:#000000;stroke-opacity:1;stroke-width:1.97196965;stroke-miterlimit:4;stroke-dasharray:none">
      <path
         class="cls-1"
         d="M 94.33,250.37 C 131,215.68 194.58,211.9 227.43,220 c 16.67,4.12 30.8,16.26 23.14,35.49 -8,17.53 -31,8 -45.27,0.51 -21.67,-11.34 -64.46,-21.53 -110.97,-5.63 z"
         id="path8"
         style="fill:none;fill-opacity:1;stroke:#000000;stroke-opacity:1;stroke-width:1.97196965;stroke-miterlimit:4;stroke-dasharray:none" />
      <path
         class="cls-1"
         d="m 222.09,214 c -60.26,-5.93 -95.21,7.35 -116.6,22 -21.39,14.65 -29.28,30.68 -55.41,30.05 -22.11,-0.53 -30.74,-34.16 2,-44.18 18.49,-5.65 47,-10.07 74.34,-19.6 22.08,-11.87 42.25,-76.08 42.29,-115.64 7.66,1.82 10.73,2.4 14.52,8.14 17.3,26.1 16.05,91.85 38.86,119.23 z"
         id="path10"
         style="fill:none;fill-opacity:1;stroke:#000000;stroke-opacity:1;stroke-width:1.97196965;stroke-miterlimit:4;stroke-dasharray:none" />
      <path
         class="cls-1"
         d="m 129.31,72.9 c 1.56,2.6 4.17,1.56 2.08,7.8 -2.09,6.24 -21.52,2.68 -30.84,13.63 -12.8,15 -16.32,97.18 -42.31,120.43 0,0 56.08,-13.89 64.85,-16.78 15.48,-5.11 42.08,-61.85 39.48,-112.83 -2.74,-0.55 -8.51,-0.87 -10,-4.45 -2.77,-6 0.52,-5.2 2.08,-7.8 1.56,-2.6 18.87,-47.49 -12.65,-47.49 -31.52,0 -14.25,44.89 -12.69,47.49"
         id="path12"
         style="fill:none;fill-opacity:1;stroke:#000000;stroke-opacity:1;stroke-width:1.97196965;stroke-miterlimit:4;stroke-dasharray:none" />
    </g>
  </g>
</svg>
